<svg width="143" height="150" viewBox="0 0 143 150" fill="none" xmlns="http://www.w3.org/2000/svg">
<g opacity="0.5" clip-path="url(#clip0_948_854)">
<path d="M46.7982 118.243L27.3865 45.7971L67.971 5.50779L105.774 15.4909M46.7982 118.243L29.1173 113.573L9.70559 41.127L63.2671 -12.0471L118.56 2.55422M46.7982 118.243L63.4211 122.632L64.2892 122.86L102.09 132.842L155.654 79.6671L136.242 7.22156L118.56 2.55422M105.774 15.4909L120.481 70.3775L92.734 97.9248L54.9327 87.9412L59.5855 105.305M105.774 15.4909L110.426 32.8509L72.6231 22.8698L44.8775 50.4146L59.5855 105.305M59.5855 105.305L97.3862 115.287L137.971 74.9977L118.56 2.55422" stroke="#1D7E33" stroke-width="0.5"/>
</g>
<defs>
<clipPath id="clip0_948_854">
<rect width="143" height="150" fill="white"/>
</clipPath>
</defs>
</svg>
