<svg width="30" height="35" viewBox="0 0 30 35" fill="none" xmlns="http://www.w3.org/2000/svg">
<g clip-path="url(#clip0_948_12)">
<path d="M15 0L30 8.75V26.25L15 35L0 26.25V8.75L15 0Z" fill="#1D7E33"/>
<path d="M21.3536 17.3536C21.5488 17.1583 21.5488 16.8417 21.3536 16.6464L18.1716 13.4645C17.9763 13.2692 17.6597 13.2692 17.4645 13.4645C17.2692 13.6597 17.2692 13.9763 17.4645 14.1716L20.2929 17L17.4645 19.8284C17.2692 20.0237 17.2692 20.3403 17.4645 20.5355C17.6597 20.7308 17.9763 20.7308 18.1716 20.5355L21.3536 17.3536ZM9 17.5L21 17.5L21 16.5L9 16.5L9 17.5Z" fill="white"/>
</g>
<defs>
<clipPath id="clip0_948_12">
<rect width="30" height="35" fill="white"/>
</clipPath>
</defs>
</svg>
