<svg width="57" height="65" viewBox="0 0 57 65" fill="none" xmlns="http://www.w3.org/2000/svg">
<g clip-path="url(#clip0_654_4902)">
<path d="M56.5 48.4595L28.5 64.4244L0.499998 48.4595L0.5 16.5405L28.5 0.575574L56.5 16.5405L56.5 48.4595Z" stroke="#81B18C"/>
<path d="M27.6367 23.9786C28.3063 23.2733 29.2542 23.0335 30.1526 23.0058C31.1008 22.9965 32.0489 23.0012 32.9969 23.0012C33.001 24.1122 33.001 25.2186 32.9969 26.3297C32.3857 26.3297 31.7701 26.3297 31.1589 26.3297C30.7721 26.3019 30.373 26.6293 30.3023 27.0581C30.2939 27.8005 30.2981 28.5425 30.2981 29.2848C31.1962 29.2895 32.0946 29.2848 32.9927 29.2895C32.9262 30.3635 32.8057 31.4332 32.6643 32.4936C31.87 32.5029 31.0757 32.4936 30.2814 32.4983C30.2731 35.6654 30.2856 38.8279 30.2773 41.9954C29.0961 42 27.9194 41.9907 26.7383 42C26.7174 38.8329 26.7383 35.6657 26.7258 32.4983C26.1519 32.4936 25.5739 32.5029 25 32.4936C25.0042 31.4286 25 30.3638 25 29.3034C25.5739 29.2941 26.1519 29.3034 26.7258 29.2987C26.7425 28.266 26.7091 27.2287 26.7425 26.1961C26.8051 25.371 27.0837 24.5457 27.6367 23.9786Z" fill="#1D7E33"/>
</g>
<defs>
<clipPath id="clip0_654_4902">
<rect width="57" height="65" fill="white" transform="translate(57 65) rotate(-180)"/>
</clipPath>
</defs>
</svg>
