<svg width="160" height="55" viewBox="0 0 160 55" fill="none" xmlns="http://www.w3.org/2000/svg">
<path d="M6.64897 44.7367V17.7578L24.3516 7.53749L36.4549 14.5257V34.9656L24.3516 41.9539L12.2491 34.9656V41.4321L24.3516 48.4196L42.0543 38.1993V11.2211L36.5027 8.01588L24.3516 1L0.988281 14.4891V41.468L6.64897 44.7367Z" fill="url(#paint0_linear_666_5458)"/>
<mask id="mask0_666_5458" style="mask-type:luminance" maskUnits="userSpaceOnUse" x="0" y="1" width="43" height="48">
<path d="M6.64897 44.7367V17.7578L24.3516 7.53749L36.4549 14.5257V34.9656L24.3516 41.9539L12.2491 34.9656V41.4321L24.3516 48.4196L42.0543 38.1993V11.2211L36.5027 8.01588L24.3516 1L0.988281 14.4891V41.468L6.64897 44.7367Z" fill="white"/>
</mask>
<g mask="url(#mask0_666_5458)">
<path d="M42.0543 1H0.988281V48.4196H42.0543V1Z" fill="url(#paint1_linear_666_5458)"/>
</g>
<path d="M11.9705 47.8093L12.2486 47.9692L24.3511 54.9567L47.7152 41.4676V14.4887L42.0537 11.2207V38.1989L24.3511 48.4192L12.2486 41.4317V20.9903L24.3511 14.0028L36.4543 20.9903V14.5253L24.3511 7.53711L6.64844 17.7574V44.7364L11.9705 47.8093Z" fill="url(#paint2_linear_666_5458)"/>
<mask id="mask1_666_5458" style="mask-type:luminance" maskUnits="userSpaceOnUse" x="6" y="7" width="42" height="48">
<path d="M11.9705 47.8093L12.2486 47.9692L24.3511 54.9567L47.7152 41.4676V14.4887L42.0537 11.2207V38.1989L24.3511 48.4192L12.2486 41.4317V20.9903L24.3511 14.0028L36.4543 20.9903V14.5253L24.3511 7.53711L6.64844 17.7574V44.7364L11.9705 47.8093Z" fill="white"/>
</mask>
<g mask="url(#mask1_666_5458)">
<path d="M47.7144 7.53711H6.64844V54.9567H47.7144V7.53711Z" fill="url(#paint3_linear_666_5458)"/>
</g>
<path d="M65.2832 37.4358V16.791H78.6161V20.0314H68.7381V25.121H76.8954V28.3613H68.7381V34.1962H78.6161V37.4365H65.2832V37.4358Z" fill="#1D7E33"/>
<path d="M80.7578 37.4352V21.9518H83.8404V26.7544H84.256V37.4352H80.7578ZM91.4954 37.4352V29.9798C91.4954 29.4924 91.4618 28.9527 91.3952 28.36C91.328 27.7672 91.1732 27.1962 90.9296 26.6468C90.6859 26.0974 90.3226 25.6459 89.8397 25.2923C89.3569 24.9388 88.7043 24.7616 87.8828 24.7616C87.4433 24.7616 87.0083 24.8334 86.5785 24.9769C86.1479 25.1204 85.7585 25.3663 85.4101 25.7154C85.0611 26.0645 84.7815 26.5421 84.5715 27.1491C84.3614 27.756 84.256 28.5327 84.256 29.479L82.2057 28.6044C82.2057 27.2851 82.4613 26.0906 82.9726 25.0202C83.4839 23.9498 84.2366 23.097 85.2307 22.4609C86.2249 21.8255 87.4478 21.5078 88.9009 21.5078C90.0475 21.5078 90.9938 21.6992 91.7398 22.0811C92.4851 22.4638 93.0778 22.9512 93.5173 23.5432C93.9569 24.136 94.282 24.7668 94.4921 25.4358C94.7021 26.1048 94.8382 26.738 94.9009 27.3352C94.963 27.9332 94.9944 28.4176 94.9944 28.7905V37.4352H91.4954Z" fill="#1D7E33"/>
<path d="M101.526 37.4365L95.9062 21.9531H99.3611L103.261 33.1788L107.146 21.9531H110.615L104.996 37.4365H101.526Z" fill="#1D7E33"/>
<path d="M119.03 37.8672C117.463 37.8672 116.087 37.5278 114.901 36.8491C113.716 36.1711 112.791 35.2293 112.127 34.0251C111.463 32.8209 111.131 31.4351 111.131 29.8676C111.131 28.176 111.456 26.7065 112.106 25.4589C112.755 24.2114 113.659 23.2441 114.815 22.5557C115.972 21.8673 117.31 21.5234 118.829 21.5234C120.435 21.5234 121.799 21.8987 122.922 22.6491C124.045 23.3996 124.879 24.4581 125.424 25.8245C125.969 27.1916 126.175 28.8017 126.041 30.6554H122.614V29.3937C122.605 27.7118 122.309 26.483 121.726 25.7093C121.143 24.935 120.225 24.5478 118.973 24.5478C117.559 24.5478 116.508 24.985 115.819 25.8596C115.131 26.7341 114.787 28.0123 114.787 29.6942C114.787 31.2616 115.131 32.4756 115.819 33.3359C116.508 34.1963 117.511 34.6261 118.83 34.6261C119.681 34.6261 120.414 34.4377 121.031 34.0595C121.647 33.682 122.123 33.1348 122.457 32.418L125.869 33.4503C125.276 34.8458 124.361 35.9304 123.123 36.7048C121.886 37.48 120.521 37.8672 119.03 37.8672ZM113.698 30.6554V28.046H124.349V30.6554H113.698Z" fill="#1D7E33"/>
<path d="M135.465 37.8664C133.868 37.8664 132.506 37.5099 131.379 36.7983C130.251 36.0867 129.389 35.1142 128.791 33.8808C128.194 32.6482 127.891 31.2527 127.881 29.6949C127.891 28.1088 128.204 26.7005 128.82 25.4731C129.436 24.245 130.313 23.2793 131.45 22.5774C132.587 21.8748 133.94 21.5234 135.507 21.5234C137.266 21.5234 138.755 21.9659 139.974 22.8495C141.192 23.7337 141.988 24.9402 142.36 26.4695L138.92 27.4017C138.652 26.5704 138.207 25.9231 137.586 25.4589C136.965 24.9955 136.258 24.7638 135.464 24.7638C134.566 24.7638 133.825 24.9768 133.242 25.4021C132.659 25.8275 132.229 26.4127 131.952 27.1587C131.674 27.904 131.536 28.7501 131.536 29.6964C131.536 31.1682 131.866 32.3582 132.525 33.2664C133.184 34.1746 134.164 34.6283 135.464 34.6283C136.382 34.6283 137.106 34.4183 137.636 33.9974C138.167 33.5766 138.565 32.9696 138.833 32.1766L142.36 32.9652C141.881 34.5424 141.046 35.7533 139.851 36.5994C138.657 37.4433 137.195 37.8664 135.465 37.8664Z" fill="#1D7E33"/>
<path d="M151.287 37.8672C149.739 37.8672 148.386 37.5181 147.23 36.8207C146.073 36.1233 145.177 35.1605 144.542 33.9324C143.906 32.7043 143.588 31.2923 143.588 29.6957C143.588 28.0706 143.913 26.6467 144.563 25.4231C145.212 24.1994 146.116 23.2434 147.272 22.5557C148.429 21.8673 149.767 21.5234 151.286 21.5234C152.844 21.5234 154.201 21.8725 155.358 22.5699C156.514 23.2673 157.413 24.2308 158.053 25.4589C158.694 26.6871 159.014 28.099 159.014 29.6957C159.014 31.3013 158.691 32.7185 158.046 33.9466C157.401 35.1747 156.5 36.1352 155.344 36.8282C154.187 37.5203 152.835 37.8672 151.287 37.8672ZM151.287 34.6268C152.663 34.6268 153.686 34.1679 154.355 33.2507C155.024 32.3335 155.359 31.148 155.359 29.6957C155.359 28.1955 155.019 26.998 154.34 26.104C153.662 25.2108 152.644 24.7638 151.287 24.7638C150.36 24.7638 149.598 24.9716 149 25.3872C148.403 25.8028 147.961 26.3813 147.674 27.1221C147.388 27.8628 147.245 28.7202 147.245 29.6957C147.245 31.1959 147.586 32.3933 148.269 33.2866C148.952 34.1806 149.958 34.6268 151.287 34.6268Z" fill="#1D7E33"/>
<defs>
<linearGradient id="paint0_linear_666_5458" x1="42.0546" y1="24.71" x2="0.988281" y2="24.71" gradientUnits="userSpaceOnUse">
<stop stop-color="#1D7E33" stop-opacity="0"/>
<stop offset="1" stop-color="#1D7E33"/>
</linearGradient>
<linearGradient id="paint1_linear_666_5458" x1="42.0546" y1="24.71" x2="0.988281" y2="24.71" gradientUnits="userSpaceOnUse">
<stop stop-color="#1D7E33" stop-opacity="0"/>
<stop offset="1" stop-color="#1D7E33"/>
</linearGradient>
<linearGradient id="paint2_linear_666_5458" x1="6.64868" y1="31.247" x2="47.715" y2="31.247" gradientUnits="userSpaceOnUse">
<stop stop-color="#1D7E33" stop-opacity="0"/>
<stop offset="1" stop-color="#1D7E33"/>
</linearGradient>
<linearGradient id="paint3_linear_666_5458" x1="6.64868" y1="31.247" x2="47.715" y2="31.247" gradientUnits="userSpaceOnUse">
<stop stop-color="#1D7E33" stop-opacity="0"/>
<stop offset="1" stop-color="#1D7E33"/>
</linearGradient>
</defs>
</svg>
