<svg width="57" height="65" viewBox="0 0 57 65" fill="none" xmlns="http://www.w3.org/2000/svg">
<g clip-path="url(#clip0_654_4901)">
<path d="M56.5 48.4595L28.5 64.4244L0.499998 48.4595L0.5 16.5405L28.5 0.575574L56.5 16.5405L56.5 48.4595Z" stroke="#81B18C"/>
<path fill-rule="evenodd" clip-rule="evenodd" d="M23.3133 42V29.1801H19.2408V41.9999H23.3133V42ZM21.2774 27.4304C22.6972 27.4304 23.5815 26.4452 23.5815 25.215C23.5547 23.9574 22.6972 23 21.3041 23C19.9107 23 19 23.9575 19 25.215C19 26.4452 19.8839 27.4304 21.2506 27.4304L21.2774 27.4304ZM25.5672 42C25.5672 42 25.6207 30.3829 25.5672 29.1801H29.6404V31.0393H29.6133C30.1489 30.1644 31.1138 28.8791 33.3107 28.8791C35.991 28.8791 37.9999 30.7114 37.9999 34.6492V42H33.9275V35.1417C33.9275 33.4185 33.3382 32.2425 31.864 32.2425C30.7391 32.2425 30.0687 33.0353 29.7743 33.8016C29.6666 34.0744 29.6404 34.4575 29.6404 34.8407V42H25.5672Z" fill="#1D7E33"/>
</g>
<defs>
<clipPath id="clip0_654_4901">
<rect width="57" height="65" fill="white" transform="translate(57 65) rotate(-180)"/>
</clipPath>
</defs>
</svg>
