<svg width="160" height="56" viewBox="0 0 160 56" fill="none" xmlns="http://www.w3.org/2000/svg">
<g clip-path="url(#clip0_933_59)">
<path d="M5.69376 44.6138V18.0195L23.4993 7.94414L35.6732 14.8328V34.9823L23.4993 41.8716L11.3268 34.9823V41.3563L23.4993 48.245L41.3063 38.1696V11.5754L35.7218 8.41582L23.4993 1.5L0 14.7971V41.392L5.69376 44.6138Z" fill="url(#paint0_linear_933_59)"/>
<mask id="mask0_933_59" style="mask-type:luminance" maskUnits="userSpaceOnUse" x="0" y="1" width="42" height="48">
<path d="M5.69376 44.6138V18.0195L23.4993 7.94414L35.6732 14.8328V34.9823L23.4993 41.8716L11.3268 34.9823V41.3563L23.4993 48.245L41.3063 38.1696V11.5754L35.7218 8.41582L23.4993 1.5L0 14.7971V41.392L5.69376 44.6138Z" fill="white"/>
</mask>
<g mask="url(#mask0_933_59)">
<path d="M41.3063 1.5H0V48.245H41.3063V1.5Z" fill="url(#paint1_linear_933_59)"/>
</g>
<path d="M11.0474 47.6438L11.3269 47.8013L23.4994 54.6893L47.0001 41.3922V14.7973L41.3063 11.5756V38.1698L23.4994 48.2452L11.3269 41.3565V21.2064L23.4994 14.3177L35.6733 21.2064V14.833L23.4994 7.94434L5.69385 18.0197V44.614L11.0474 47.6438Z" fill="url(#paint2_linear_933_59)"/>
<mask id="mask1_933_59" style="mask-type:luminance" maskUnits="userSpaceOnUse" x="5" y="7" width="42" height="48">
<path d="M11.0474 47.6438L11.3269 47.8013L23.4994 54.6893L47.0001 41.3922V14.7973L41.3063 11.5756V38.1698L23.4994 48.2452L11.3269 41.3565V21.2064L23.4994 14.3177L35.6733 21.2064V14.833L23.4994 7.94434L5.69385 18.0197V44.614L11.0474 47.6438Z" fill="white"/>
</mask>
<g mask="url(#mask1_933_59)">
<path d="M47.0001 7.94434H5.69385V54.6893H47.0001V7.94434Z" fill="url(#paint3_linear_933_59)"/>
</g>
<path d="M62 38.0711V17.5H75.371V20.7286H65.4647V25.8001H73.646V29.0287H65.4647V34.8432H75.371V38.0718H62V38.0711Z" fill="white"/>
<path d="M77.5186 38.0711V22.6424H80.6098V27.4284H81.0264V38.0711H77.5186ZM88.2876 38.0711V30.6423C88.2876 30.1568 88.254 29.6185 88.1867 29.028C88.1194 28.4375 87.9639 27.8684 87.7196 27.3208C87.4753 26.7731 87.1105 26.323 86.6266 25.9706C86.1427 25.6182 85.4885 25.4417 84.6641 25.4417C84.2232 25.4417 83.7871 25.5132 83.3557 25.6563C82.9243 25.7994 82.5339 26.0442 82.184 26.3919C81.834 26.7396 81.5533 27.2158 81.3427 27.8203C81.132 28.4255 81.0264 29.1985 81.0264 30.1421L78.9703 29.2707C78.9703 27.9567 79.2267 26.7664 79.7395 25.6998C80.2524 24.6332 81.0068 23.7832 82.0043 23.15C83.001 22.5167 84.2279 22.1997 85.685 22.1997C86.8352 22.1997 87.7842 22.3903 88.5319 22.7715C89.2797 23.1526 89.8739 23.6381 90.3148 24.2286C90.7556 24.8191 91.0813 25.4477 91.2927 26.1144C91.5033 26.7811 91.6399 27.4124 91.7025 28.0075C91.7651 28.6027 91.7961 29.0862 91.7961 29.4573V38.0718H88.2876V38.0711Z" fill="white"/>
<path d="M98.3459 38.0713L92.71 22.6426H96.1747L100.086 33.8282L103.982 22.6426H107.461L101.825 38.0713H98.3459Z" fill="white"/>
<path d="M115.901 38.5002C114.329 38.5002 112.948 38.1618 111.76 37.4857C110.572 36.8096 109.644 35.8714 108.978 34.6717C108.312 33.4721 107.979 32.0912 107.979 30.529C107.979 28.8439 108.304 27.3794 108.956 26.1362C109.608 24.8931 110.514 23.9294 111.674 23.2433C112.834 22.5579 114.176 22.2148 115.7 22.2148C117.31 22.2148 118.678 22.5887 119.805 23.3363C120.931 24.0839 121.767 25.1392 122.314 26.5007C122.86 27.8628 123.066 29.4678 122.932 31.3148H119.496V30.0576C119.487 28.3811 119.189 27.1573 118.605 26.3863C118.02 25.6153 117.1 25.2294 115.844 25.2294C114.425 25.2294 113.371 25.6654 112.681 26.5368C111.991 27.4081 111.646 28.682 111.646 30.3578C111.646 31.92 111.991 33.129 112.681 33.9863C113.371 34.8436 114.378 35.2723 115.7 35.2723C116.553 35.2723 117.288 35.0844 117.907 34.7079C118.525 34.332 119.002 33.7864 119.338 33.0722L122.76 34.1007C122.166 35.4909 121.248 36.5722 120.007 37.3433C118.764 38.1143 117.396 38.5002 115.901 38.5002ZM110.553 31.3148V28.7148H121.236V31.3148H110.553Z" fill="white"/>
<path d="M132.383 38.5002C130.782 38.5002 129.416 38.1451 128.285 37.4356C127.153 36.7261 126.289 35.7571 125.69 34.5286C125.091 33.3002 124.786 31.9099 124.776 30.3572C124.786 28.7763 125.1 27.374 125.718 26.1503C126.336 24.9265 127.215 23.9649 128.356 23.2647C129.497 22.5646 130.853 22.2148 132.425 22.2148C134.189 22.2148 135.682 22.6555 136.904 23.5362C138.126 24.4169 138.924 25.62 139.298 27.1433L135.847 28.0715C135.578 27.2429 135.133 26.5976 134.51 26.1355C133.886 25.6735 133.177 25.4428 132.382 25.4428C131.48 25.4428 130.737 25.6547 130.153 26.078C129.568 26.502 129.137 27.0851 128.859 27.8281C128.581 28.571 128.442 29.4136 128.442 30.3565C128.442 31.8237 128.772 33.0093 129.434 33.9141C130.095 34.8189 131.077 35.2709 132.381 35.2709C133.301 35.2709 134.027 35.0616 134.559 34.6423C135.09 34.2237 135.491 33.6185 135.759 32.8281L139.296 33.6138C138.817 35.1853 137.978 36.3924 136.78 37.2356C135.584 38.0789 134.118 38.5002 132.383 38.5002Z" fill="white"/>
<path d="M148.25 38.5C146.698 38.5 145.341 38.1523 144.181 37.4568C143.022 36.762 142.123 35.8024 141.486 34.578C140.848 33.3549 140.529 31.9473 140.529 30.3564C140.529 28.7374 140.855 27.3184 141.507 26.0993C142.159 24.8802 143.065 23.928 144.225 23.2419C145.384 22.5564 146.727 22.2134 148.251 22.2134C149.813 22.2134 151.174 22.5611 152.334 23.2559C153.494 23.9514 154.395 24.911 155.037 26.1348C155.679 27.3585 156 28.7662 156 30.3564C156 31.9566 155.676 33.369 155.03 34.592C154.383 35.8158 153.479 36.7734 152.319 37.4635C151.159 38.1543 149.803 38.5 148.25 38.5ZM148.25 35.2715C149.631 35.2715 150.656 34.8141 151.327 33.8999C151.998 32.9858 152.333 31.8048 152.333 30.357C152.333 28.8625 151.992 27.6695 151.312 26.7787C150.631 25.888 149.61 25.4433 148.25 25.4433C147.319 25.4433 146.556 25.6506 145.957 26.0645C145.358 26.4791 144.914 27.0556 144.627 27.7932C144.339 28.5314 144.195 29.3861 144.195 30.3577C144.195 31.853 144.538 33.046 145.224 33.9367C145.909 34.8261 146.918 35.2715 148.25 35.2715Z" fill="white"/>
</g>
<defs>
<linearGradient id="paint0_linear_933_59" x1="41.3061" y1="24.8725" x2="0" y2="24.8725" gradientUnits="userSpaceOnUse">
<stop stop-color="white" stop-opacity="0"/>
<stop offset="1" stop-color="white"/>
</linearGradient>
<linearGradient id="paint1_linear_933_59" x1="41.3061" y1="24.8725" x2="0" y2="24.8725" gradientUnits="userSpaceOnUse">
<stop stop-color="white" stop-opacity="0"/>
<stop offset="1" stop-color="white"/>
</linearGradient>
<linearGradient id="paint2_linear_933_59" x1="5.69409" y1="31.3171" x2="47.0003" y2="31.3171" gradientUnits="userSpaceOnUse">
<stop stop-color="white" stop-opacity="0"/>
<stop offset="1" stop-color="white"/>
</linearGradient>
<linearGradient id="paint3_linear_933_59" x1="5.69409" y1="31.3171" x2="47.0003" y2="31.3171" gradientUnits="userSpaceOnUse">
<stop stop-color="white" stop-opacity="0"/>
<stop offset="1" stop-color="white"/>
</linearGradient>
<clipPath id="clip0_933_59">
<rect width="160" height="55" fill="white" transform="translate(0 0.5)"/>
</clipPath>
</defs>
</svg>
