<svg width="567" height="137" viewBox="0 0 567 137" fill="none" xmlns="http://www.w3.org/2000/svg">
<path d="M160.82 112.8H218.59V98.7596H175.79V73.4796H211.13V59.4396H175.79V37.3896H218.59V23.3496H160.82V112.8Z" fill="#1D7E33"/>
<path d="M287.37 60.7993C286.46 57.8993 285.05 55.1693 283.15 52.5993C281.24 50.0293 278.68 47.9193 275.45 46.2593C272.22 44.5993 268.12 43.7793 263.15 43.7793C256.85 43.7793 251.55 45.1593 247.25 47.9093C244.94 49.3893 242.93 51.1493 241.22 53.1693V45.6993H227.87V112.789H243.03V78.3193C243.03 74.2193 243.49 70.8593 244.4 68.2293C245.31 65.5993 246.52 63.5293 248.03 62.0193C249.54 60.5093 251.23 59.4393 253.09 58.8193C254.95 58.1993 256.84 57.8893 258.74 57.8893C262.3 57.8893 265.13 58.6593 267.22 60.1893C269.31 61.7193 270.88 63.6793 271.94 66.0593C273 68.4393 273.67 70.9193 273.96 73.4793C274.25 76.0493 274.39 78.3893 274.39 80.4993V112.799H289.55V75.3393C289.55 73.7193 289.41 71.6193 289.15 69.0393C288.87 66.4493 288.28 63.6993 287.37 60.7993Z" fill="#1D7E33"/>
<path d="M325.36 94.35L308.47 45.71H293.5L317.85 112.8H332.88L357.23 45.71H342.2L325.36 94.35Z" fill="#1D7E33"/>
<path d="M409.47 13.0996H398.1L388.53 36.0796H399.9L409.47 13.0996Z" fill="#1D7E33"/>
<path d="M410.55 48.7198C405.68 45.4698 399.77 43.8398 392.82 43.8398C386.24 43.8398 380.44 45.3298 375.43 48.3098C370.42 51.2898 366.51 55.4898 363.69 60.8898C360.87 66.2898 359.47 72.6598 359.47 79.9898C359.47 86.7798 360.91 92.7898 363.79 97.9998C366.67 103.21 370.67 107.3 375.81 110.24C380.94 113.18 386.91 114.65 393.7 114.65C400.16 114.65 406.07 112.97 411.43 109.62C416.79 106.27 420.76 101.57 423.32 95.5198L408.54 91.0498C407.09 94.1598 405.03 96.5298 402.36 98.1598C399.69 99.7998 396.51 100.61 392.82 100.61C387.11 100.61 382.76 98.7498 379.78 95.0198C377.44 92.0998 376.03 88.2098 375.53 83.3998H409.22H416.74H424.07C424.65 75.3698 423.76 68.3898 421.4 62.4698C419.03 56.5598 415.42 51.9698 410.55 48.7198ZM393.44 56.9498C398.86 56.9498 402.84 58.6298 405.37 61.9798C407.16 64.3598 408.32 67.7498 408.86 72.0998H375.89C376.58 68.2198 377.87 65.0598 379.78 62.6298C382.76 58.8498 387.31 56.9498 393.44 56.9498Z" fill="#1D7E33"/>
<path d="M455.27 60.6496C457.8 58.8096 461.01 57.8896 464.9 57.8896C468.34 57.8896 471.4 58.8896 474.09 60.8996C476.78 62.9096 478.71 65.7096 479.87 69.3196L494.78 65.2796C493.17 58.6496 489.72 53.4296 484.44 49.5996C479.16 45.7696 472.71 43.8496 465.09 43.8496C458.3 43.8496 452.44 45.3696 447.51 48.4196C442.58 51.4596 438.78 55.6496 436.11 60.9696C433.44 66.2896 432.08 72.3896 432.04 79.2596C432.08 86.0096 433.4 92.0596 435.98 97.3996C438.57 102.74 442.31 106.96 447.19 110.04C452.08 113.12 457.98 114.67 464.89 114.67C472.38 114.67 478.72 112.84 483.9 109.17C489.08 105.51 492.7 100.26 494.77 93.4196L479.49 89.9996C478.33 93.4396 476.6 96.0696 474.3 97.8896C472 99.7096 468.87 100.62 464.89 100.62C459.26 100.62 455.01 98.6496 452.16 94.7196C449.3 90.7896 447.87 85.6296 447.87 79.2496C447.87 75.1496 448.47 71.4896 449.67 68.2596C450.88 65.0296 452.74 62.4896 455.27 60.6496Z" fill="#1D7E33"/>
<path d="M562.77 60.8996C559.99 55.5796 556.1 51.4096 551.09 48.3796C546.08 45.3596 540.2 43.8496 533.45 43.8496C526.87 43.8496 521.07 45.3396 516.06 48.3196C511.05 51.2996 507.14 55.4396 504.32 60.7396C501.5 66.0396 500.1 72.2096 500.1 79.2496C500.1 86.1696 501.48 92.2796 504.23 97.5996C506.98 102.92 510.87 107.09 515.88 110.12C520.89 113.14 526.75 114.65 533.46 114.65C540.17 114.65 546.03 113.15 551.04 110.15C556.05 107.15 559.95 102.99 562.75 97.6596C565.55 92.3396 566.94 86.1996 566.94 79.2396C566.93 72.3396 565.54 66.2196 562.77 60.8996ZM546.74 94.6596C543.84 98.6396 539.41 100.62 533.45 100.62C527.69 100.62 523.33 98.6896 520.37 94.8096C517.41 90.9396 515.93 85.7496 515.93 79.2496C515.93 75.0296 516.55 71.3096 517.79 68.0996C519.03 64.8896 520.95 62.3796 523.54 60.5796C526.13 58.7796 529.43 57.8796 533.45 57.8796C539.33 57.8796 543.74 59.8196 546.68 63.6896C549.62 67.5596 551.09 72.7496 551.09 79.2496C551.09 85.5496 549.64 90.6796 546.74 94.6596Z" fill="#1D7E33"/>
<path fill-rule="evenodd" clip-rule="evenodd" d="M14.29 110.42V42.31L58.98 16.5L89.54 34.15V85.75L58.98 103.4L28.43 85.75V102.08L58.98 119.72L103.68 93.92V25.8L89.66 17.71L58.98 0L0 34.06V102.17L14.29 110.42Z" fill="url(#paint0_linear_1276_11382)"/>
<path fill-rule="evenodd" clip-rule="evenodd" d="M27.73 118.18L28.43 118.58L58.98 136.22L117.97 102.17V34.06L103.68 25.8V93.92L58.98 119.72L28.43 102.08V50.47L58.98 32.83L89.54 50.47V34.15L58.98 16.5L14.29 42.31V110.42L27.73 118.18Z" fill="url(#paint1_linear_1276_11382)"/>
<defs>
<linearGradient id="paint0_linear_1276_11382" x1="103.679" y1="59.8594" x2="0" y2="59.8594" gradientUnits="userSpaceOnUse">
<stop stop-color="#008026" stop-opacity="0"/>
<stop offset="1" stop-color="#008026"/>
</linearGradient>
<linearGradient id="paint1_linear_1276_11382" x1="14.292" y1="76.3643" x2="117.971" y2="76.3643" gradientUnits="userSpaceOnUse">
<stop stop-color="#008026" stop-opacity="0"/>
<stop offset="1" stop-color="#008026"/>
</linearGradient>
</defs>
</svg>
