<svg width="56" height="65" viewBox="0 0 56 65" fill="none" xmlns="http://www.w3.org/2000/svg">
<g clip-path="url(#clip0_655_4681)">
<path d="M55.5 48.4621L28 64.4219L0.500001 48.4621L0.500004 16.5379L28 0.5781L55.5 16.5379L55.5 48.4621Z" stroke="#81B18C"/>
<path d="M19.6464 31.6464C19.4512 31.8417 19.4512 32.1583 19.6464 32.3536L22.8284 35.5355C23.0237 35.7308 23.3403 35.7308 23.5355 35.5355C23.7308 35.3403 23.7308 35.0237 23.5355 34.8284L20.7071 32L23.5355 29.1716C23.7308 28.9763 23.7308 28.6597 23.5355 28.4645C23.3403 28.2692 23.0237 28.2692 22.8284 28.4645L19.6464 31.6464ZM36 31.5L20 31.5L20 32.5L36 32.5L36 31.5Z" fill="#191919"/>
</g>
<defs>
<clipPath id="clip0_655_4681">
<rect width="56" height="65" fill="white" transform="translate(56 65) rotate(-180)"/>
</clipPath>
</defs>
</svg>
