<svg width="57" height="65" viewBox="0 0 57 65" fill="none" xmlns="http://www.w3.org/2000/svg">
<g clip-path="url(#clip0_655_4688)">
<path d="M0.5 16.5405L28.5 0.575565L56.5 16.5405L56.5 48.4595L28.5 64.4244L0.5 48.4595L0.5 16.5405Z" stroke="#81B18C"/>
<path d="M36.3536 32.3536C36.5488 32.1583 36.5488 31.8417 36.3536 31.6464L33.1716 28.4645C32.9763 28.2692 32.6597 28.2692 32.4645 28.4645C32.2692 28.6597 32.2692 28.9763 32.4645 29.1716L35.2929 32L32.4645 34.8284C32.2692 35.0237 32.2692 35.3403 32.4645 35.5355C32.6597 35.7308 32.9763 35.7308 33.1716 35.5355L36.3536 32.3536ZM20 32.5L36 32.5L36 31.5L20 31.5L20 32.5Z" fill="#191919"/>
</g>
<defs>
<clipPath id="clip0_655_4688">
<rect width="57" height="65" fill="white"/>
</clipPath>
</defs>
</svg>
