<svg width="40" height="40" viewBox="0 0 40 40" fill="none" xmlns="http://www.w3.org/2000/svg">
<path d="M18.335 28.333H21.6683V21.6663H28.335V18.333H21.6683V11.6663H18.335V18.333H11.6683V21.6663H18.335V28.333ZM20.0016 36.6663C17.6961 36.6663 15.5294 36.2288 13.5016 35.3538C11.4739 34.4788 9.70996 33.2913 8.20996 31.7913C6.70996 30.2913 5.52246 28.5275 4.64746 26.4997C3.77246 24.4719 3.33496 22.3052 3.33496 19.9997C3.33496 17.6941 3.77246 15.5275 4.64746 13.4997C5.52246 11.4719 6.70996 9.70801 8.20996 8.20801C9.70996 6.70801 11.4739 5.52051 13.5016 4.64551C15.5294 3.77051 17.6961 3.33301 20.0016 3.33301C22.3072 3.33301 24.4739 3.77051 26.5016 4.64551C28.5294 5.52051 30.2933 6.70801 31.7933 8.20801C33.2933 9.70801 34.4808 11.4719 35.3558 13.4997C36.2308 15.5275 36.6683 17.6941 36.6683 19.9997C36.6683 22.3052 36.2308 24.4719 35.3558 26.4997C34.4808 28.5275 33.2933 30.2913 31.7933 31.7913C30.2933 33.2913 28.5294 34.4788 26.5016 35.3538C24.4739 36.2288 22.3072 36.6663 20.0016 36.6663ZM20.0016 33.333C23.7239 33.333 26.8766 32.0413 29.46 29.458C32.0433 26.8747 33.335 23.7219 33.335 19.9997C33.335 16.2775 32.0433 13.1247 29.46 10.5413C26.8766 7.95801 23.7239 6.66634 20.0016 6.66634C16.2794 6.66634 13.1266 7.95801 10.5433 10.5413C7.95996 13.1247 6.66829 16.2775 6.66829 19.9997C6.66829 23.7219 7.95996 26.8747 10.5433 29.458C13.1266 32.0413 16.2794 33.333 20.0016 33.333Z" fill="#1D7E33"/>
</svg>
