<svg width="57" height="65" viewBox="0 0 57 65" fill="none" xmlns="http://www.w3.org/2000/svg">
<g clip-path="url(#clip0_654_4900)">
<path d="M56.5 48.4595L28.5 64.4244L0.499998 48.4595L0.5 16.5405L28.5 0.575574L56.5 16.5405L56.5 48.4595Z" stroke="#81B18C"/>
<path fill-rule="evenodd" clip-rule="evenodd" d="M24.2335 42C32.9125 42 37.6597 35.0739 37.6597 29.0684C37.6597 28.8712 37.6597 28.6755 37.6459 28.4806C38.5694 27.8382 39.3664 27.0405 40 26.1278C39.1398 26.4956 38.2255 26.7367 37.2906 26.8431C38.275 26.2749 39.0121 25.3822 39.3652 24.3288C38.4383 24.8583 37.4251 25.2319 36.3683 25.4324C34.5812 23.6026 31.5924 23.5139 29.6914 25.2352C28.4667 26.345 27.9457 27.9998 28.3264 29.5781C24.5325 29.3943 20.9974 27.6686 18.6008 24.8298C17.3485 26.9066 17.989 29.5624 20.0625 30.896C19.3115 30.8749 18.5767 30.6802 17.92 30.328V30.3857C17.9212 32.5489 19.5047 34.4115 21.7058 34.8401C21.0112 35.0229 20.2821 35.0494 19.576 34.9176C20.1935 36.7695 21.9657 38.038 23.9839 38.0745C22.313 39.3394 20.2488 40.0263 18.1236 40.0241C17.7487 40.023 17.3737 40.0019 17 39.9587C19.1586 41.2923 21.669 42 24.2335 41.9967" fill="#1D7E33"/>
</g>
<defs>
<clipPath id="clip0_654_4900">
<rect width="57" height="65" fill="white" transform="translate(57 65) rotate(-180)"/>
</clipPath>
</defs>
</svg>
